<?xml version="1.0" encoding="UTF-8" standalone="no"?>
<!-- Created with Inkscape (http://www.inkscape.org/) -->

<svg
   version="1.1"
   id="svg1"
   width="140.58162"
   height="9.6501255"
   viewBox="0 0 140.58162 9.6501255"
   sodipodi:docname="hr.svg"
   inkscape:version="1.2-dev (12dc863, 2021-08-07)"
   xmlns:inkscape="http://www.inkscape.org/namespaces/inkscape"
   xmlns:sodipodi="http://sodipodi.sourceforge.net/DTD/sodipodi-0.dtd"
   xmlns:xlink="http://www.w3.org/1999/xlink"
   xmlns="http://www.w3.org/2000/svg"
   xmlns:svg="http://www.w3.org/2000/svg">
  <defs
     id="defs1">
    <linearGradient
       inkscape:collect="always"
       id="linearGradient29626">
      <stop
         style="stop-color:#7355b9;stop-opacity:1;"
         offset="0"
         id="stop29622" />
      <stop
         style="stop-color:#734bb9;stop-opacity:1;"
         offset="0.20038168"
         id="stop29777" />
      <stop
         style="stop-color:#7341b9;stop-opacity:1;"
         offset="0.40458018"
         id="stop29779" />
      <stop
         style="stop-color:#7337b9;stop-opacity:1;"
         offset="0.6145038"
         id="stop29781" />
      <stop
         style="stop-color:#732db9;stop-opacity:1;"
         offset="0.8148855"
         id="stop29783" />
      <stop
         style="stop-color:#7323b9;stop-opacity:1;"
         offset="1"
         id="stop29624" />
    </linearGradient>
    <linearGradient
       inkscape:collect="always"
       xlink:href="#linearGradient29626"
       id="linearGradient29628"
       x1="1.3203126"
       y1="6.1032209"
       x2="141.75"
       y2="6.5515957"
       gradientUnits="userSpaceOnUse" />
  </defs>
  <sodipodi:namedview
     id="namedview1"
     pagecolor="#505050"
     bordercolor="#ffffff"
     borderopacity="1"
     inkscape:showpageshadow="0"
     inkscape:pageopacity="0"
     inkscape:pagecheckerboard="1"
     inkscape:deskcolor="#505050"
     inkscape:zoom="1.28"
     inkscape:cx="67.96875"
     inkscape:cy="-54.6875"
     inkscape:window-width="1024"
     inkscape:window-height="746"
     inkscape:window-x="-8"
     inkscape:window-y="-8"
     inkscape:window-maximized="1"
     inkscape:current-layer="g1"
     inkscape:pageshadow="0"
     showgrid="false" />
  <g
     inkscape:groupmode="layer"
     inkscape:label="Image"
     id="g1"
     transform="translate(-1.3203127,-1.2781583)">
    <path
       d="m 67.389518,8.5744648 c -2.2176,-1.315811 -4.01282,-2.426663 -3.98938,-2.46856 0.0234,-0.0419 1.85061,-1.14528 4.06038,-2.451961 l 4.01777,-2.3757855 4.08054,2.4140625 c 2.2443,1.327734 4.04592,2.446991 4.00362,2.487239 -0.10108,0.09615 -7.88097,4.6979852 -8.02787,4.7485052 -0.0622,0.02139 -1.92746,-1.0376892 -4.14506,-2.3535002 z m -23.7906,-0.908836 c -1.36323,-0.810209 -2.496,-1.490509 -2.51727,-1.511777 -0.0573,-0.05731 4.97688,-3.00616 5.10802,-2.992099 0.0617,0.0066 1.218,0.666619 2.56959,1.466678 l 2.45745,1.454653 2.3264,-1.378834 c 1.27953,-0.758359 2.41987,-1.42868 2.5341,-1.489604 0.18417,-0.09823 0.49386,0.05846 2.736,1.384276 1.39057,0.822275 2.53958,1.506258 2.55335,1.519962 0.0263,0.02615 -5.03232,3.030844 -5.10262,3.030844 -0.0223,0 -0.48737,-0.265939 -1.03348,-0.590976 -0.54612,-0.325036 -1.67302,-0.992127 -2.50423,-1.482424 l -1.5113,-0.891448 -2.50684,1.482424 c -1.37876,0.815334 -2.53467,1.479951 -2.5687,1.476928 -0.034,-0.003 -1.17724,-0.668394 -2.54047,-1.478603 z m 40.5906,0.03345 c -1.32,-0.789025 -2.45269,-1.466798 -2.51709,-1.506161 -0.0731,-0.04467 0.41405,-0.383451 1.296,-0.901334 0.7772,-0.456371 1.93485,-1.136791 2.57254,-1.512043 l 1.15945,-0.682278 2.51824,1.493304 2.51824,1.493304 2.52838,-1.496126 2.52838,-1.496126 2.38593,1.411002 c 1.312262,0.776051 2.463222,1.463973 2.557682,1.528715 0.15027,0.102996 -0.14671,0.305723 -2.375592,1.62165 -2.2925,1.353486 -2.56898,1.492624 -2.76374,1.390848 -0.11903,-0.0622 -1.2606,-0.732598 -2.53684,-1.489775 l -2.32042,-1.376686 -2.50502,1.486177 c -1.37776,0.817397 -2.53677,1.482564 -2.57558,1.478149 -0.0388,-0.0044 -1.15056,-0.653594 -2.47056,-1.44262 z m -45.92903,-1.010297 c -0.46078,-0.585785 -0.0904,-1.379054 0.64394,-1.379054 0.49975,0 0.78909,0.304138 0.78909,0.829454 0,0.517937 -0.29761,0.802546 -0.83922,0.802546 -0.31221,0 -0.43648,-0.05293 -0.59381,-0.252946 z m 64.896002,0 c -0.46078,-0.585785 -0.0904,-1.379054 0.64394,-1.379054 0.49975,0 0.78909,0.304138 0.78909,0.829454 0,0.517937 -0.29761,0.802546 -0.83922,0.802546 -0.31221,0 -0.43648,-0.05293 -0.59381,-0.252946 z M 14.930458,6.4512208 C 7.5675782,6.3546508 1.4799577,6.2512958 1.4024077,6.2215388 c -0.0853,-0.03274 -0.10622,-0.08863 -0.0529,-0.141517 0.10417,-0.103414 34.4299903,-0.545792 34.8168103,-0.448705 0.30828,0.07737 0.43616,0.441232 0.27749,0.789491 l -0.10613,0.23292 -4.01006,-0.01346 c -2.20553,-0.0074 -10.03423,-0.09248 -17.39712,-0.189043 z m 91.852842,-0.03041 c -0.1587,-0.348259 -0.031,-0.712119 0.2775,-0.789491 0.2997,-0.07523 34.6734,0.334582 34.8035,0.414938 0.05,0.03064 0.05,0.08895 0.001,0.137712 -0.078,0.0784 -27.0968,0.46783 -32.5503,0.469167 l -2.426,5.94e-4 z"
       style="fill:url(#linearGradient29628);fill-opacity:1"
       id="path1-9" />
  </g>
</svg>
